{
  "accessors": [
    {
      "bufferView": 2,
      "componentType": 5126,
      "count": 9920,
      "max": [
        6.6026692390441895,
        6.363037109375,
        4.523635387420654
      ],
      "min": [
        -6.6026692390441895,
        -5.969969272613525,
        -7.45237398147583
      ],
      "type": "VEC3"
    },
    {
      "bufferView": 2,
      "byteOffset": 119040,
      "componentType": 5126,
      "count": 9920,
      "max": [
        1.0,
        1.0,
        1.0
      ],
      "min": [
        -1.0,
        -1.0,
        -1.0
      ],
      "type": "VEC3"
    },
    {
      "bufferView": 1,
      "componentType": 5126,
      "count": 9920,
      "max": [
        1.0,
        1.0
      ],
      "min": [
        0.0,
        0.0
      ],
      "type": "VEC2"
    },
    {
      "bufferView": 0,
      "componentType": 5125,
      "count": 38208,
      "type": "SCALAR"
    },
    {
      "bufferView": 2,
      "byteOffset": 238080,
      "componentType": 5126,
      "count": 198,
      "max": [
        4.71510124206543,
        4.416067600250244,
        -5.306105613708496
      ],
      "min": [
        -5.144439220428467,
        -4.756088733673096,
        -7.452373504638672
      ],
      "type": "VEC3"
    },
    {
      "bufferView": 2,
      "byteOffset": 240456,
      "componentType": 5126,
      "count": 198,
      "max": [
        0.6307649612426758,
        0.0,
        -0.7029440402984619
      ],
      "min": [
        -0.7112452387809753,
        0.0,
        -1.0
      ],
      "type": "VEC3"
    },
    {
      "bufferView": 1,
      "byteOffset": 79360,
      "componentType": 5126,
      "count": 198,
      "max": [
        0.6807330250740051,
        0.6837058067321777
      ],
      "min": [
        0.29576292634010315,
        0.3113144636154175
      ],
      "type": "VEC2"
    },
    {
      "bufferView": 0,
      "byteOffset": 152832,
      "componentType": 5125,
      "count": 1020,
      "type": "SCALAR"
    }
  ],
  "asset": {
    "extras": {
      "author": "MatiasNavarrete (https://sketchfab.com/matiasnavarrete)",
      "license": "CC-BY-4.0 (http://creativecommons.org/licenses/by/4.0/)",
      "source": "https://sketchfab.com/3d-models/marshmello-helmet-683b919c4a24464692c1f77c2e4fa6f8",
      "title": "Marshmello Helmet"
    },
    "generator": "Sketchfab-12.67.0",
    "version": "2.0"
  },
  "bufferViews": [
    {
      "buffer": 0,
      "byteLength": 156912,
      "name": "floatBufferViews",
      "target": 34963
    },
    {
      "buffer": 0,
      "byteLength": 80944,
      "byteOffset": 156912,
      "byteStride": 8,
      "name": "floatBufferViews",
      "target": 34962
    },
    {
      "buffer": 0,
      "byteLength": 242832,
      "byteOffset": 237856,
      "byteStride": 12,
      "name": "floatBufferViews",
      "target": 34962
    }
  ],
  "buffers": [
    {
      "byteLength": 480688,
      "uri": "scene.bin"
    }
  ],
  "materials": [
    {
      "doubleSided": true,
      "name": "Material",
      "pbrMetallicRoughness": {
        "metallicFactor": 0.0,
        "roughnessFactor": 0.175
      }
    },
    {
      "doubleSided": true,
      "name": "Material.001",
      "pbrMetallicRoughness": {
        "baseColorFactor": [
          0.0,
          0.0,
          0.0,
          1.0
        ],
        "metallicFactor": 0.0,
        "roughnessFactor": 0.125
      }
    }
  ],
  "meshes": [
    {
      "name": "Object_0",
      "primitives": [
        {
          "attributes": {
            "NORMAL": 1,
            "POSITION": 0,
            "TEXCOORD_0": 2
          },
          "indices": 3,
          "material": 0,
          "mode": 4
        }
      ]
    },
    {
      "name": "Object_1",
      "primitives": [
        {
          "attributes": {
            "NORMAL": 5,
            "POSITION": 4,
            "TEXCOORD_0": 6
          },
          "indices": 7,
          "material": 1,
          "mode": 4
        }
      ]
    }
  ],
  "nodes": [
    {
      "children": [
        1
      ],
      "matrix": [
        1.0,
        0.0,
        0.0,
        0.0,
        0.0,
        2.220446049250313e-16,
        -1.0,
        0.0,
        0.0,
        1.0,
        2.220446049250313e-16,
        0.0,
        0.0,
        0.0,
        0.0,
        1.0
      ],
      "name": "Sketchfab_model"
    },
    {
      "children": [
        2
      ],
      "name": "root"
    },
    {
      "children": [
        3
      ],
      "matrix": [
        1.0,
        0.0,
        0.0,
        0.0,
        0.0,
        2.220446049250313e-16,
        1.0,
        0.0,
        0.0,
        -1.0,
        2.220446049250313e-16,
        0.0,
        0.0,
        0.0,
        0.0,
        1.0
      ],
      "name": "GLTF_SceneRootNode"
    },
    {
      "children": [
        4,
        5
      ],
      "matrix": [
        1.0,
        0.0,
        0.0,
        0.0,
        0.0,
        1.0,
        0.0,
        0.0,
        0.0,
        0.0,
        1.0968234539031982,
        0.0,
        -0.2325488030910492,
        11.860223770141602,
        1.2609058618545532,
        1.0
      ],
      "name": "Cube_1"
    },
    {
      "mesh": 0,
      "name": "Object_4"
    },
    {
      "children": [
        6
      ],
      "matrix": [
        -1.0089152741667666,
        0.0,
        -0.04679690469226891,
        0.0,
        0.0,
        1.0,
        0.0,
        0.0,
        0.04633356943974283,
        0.0,
        -0.9989260234586808,
        0.0,
        0.03056599199771881,
        0.0,
        -3.116182327270508,
        1.0
      ],
      "name": "Cube.001_0"
    },
    {
      "mesh": 1,
      "name": "Object_6"
    }
  ],
  "scene": 0,
  "scenes": [
    {
      "name": "Sketchfab_Scene",
      "nodes": [
        0
      ]
    }
  ]
}
